<mxfile host="65bd71144e">
    <diagram id="BwQGTmxmMa0DhIT_cqKH" name="Page-1">
        <mxGraphModel dx="936" dy="667" grid="1" gridSize="10" guides="1" tooltips="1" connect="1" arrows="1" fold="1" page="1" pageScale="1" pageWidth="850" pageHeight="1100" math="0" shadow="0">
            <root>
                <mxCell id="0"/>
                <mxCell id="1" parent="0"/>
                <mxCell id="15" style="edgeStyle=none;sketch=0;html=1;exitX=0;exitY=0.25;exitDx=0;exitDy=0;entryX=0.75;entryY=1;entryDx=0;entryDy=0;shadow=0;" parent="1" source="2" target="6" edge="1">
                    <mxGeometry relative="1" as="geometry">
                        <Array as="points">
                            <mxPoint x="180" y="240"/>
                        </Array>
                    </mxGeometry>
                </mxCell>
                <mxCell id="29" value="จำนวนระยะเวลาที่ไช้ชาร์จ" style="edgeLabel;html=1;align=center;verticalAlign=middle;resizable=0;points=[];" parent="15" vertex="1" connectable="0">
                    <mxGeometry x="-0.0462" relative="1" as="geometry">
                        <mxPoint x="35" y="-10" as="offset"/>
                    </mxGeometry>
                </mxCell>
                <mxCell id="16" style="edgeStyle=none;sketch=0;html=1;entryX=0.25;entryY=1;entryDx=0;entryDy=0;shadow=0;" parent="1" source="2" target="6" edge="1">
                    <mxGeometry relative="1" as="geometry">
                        <Array as="points">
                            <mxPoint x="130" y="270"/>
                        </Array>
                    </mxGeometry>
                </mxCell>
                <mxCell id="30" value="จำนวนสถานีชาร์จ" style="edgeLabel;html=1;align=center;verticalAlign=middle;resizable=0;points=[];" parent="16" vertex="1" connectable="0">
                    <mxGeometry x="-0.2846" y="-1" relative="1" as="geometry">
                        <mxPoint y="-9" as="offset"/>
                    </mxGeometry>
                </mxCell>
                <mxCell id="2" value="0" style="swimlane;childLayout=stackLayout;horizontal=1;startSize=30;horizontalStack=0;rounded=1;fontSize=14;fontStyle=0;strokeWidth=2;resizeParent=0;resizeLast=1;shadow=0;dashed=0;align=center;" parent="1" vertex="1">
                    <mxGeometry x="350" y="210" width="170" height="120" as="geometry">
                        <mxRectangle x="345" y="120" width="50" height="30" as="alternateBounds"/>
                    </mxGeometry>
                </mxCell>
                <mxCell id="4" value="ระบบสารสนเทศและแอพพลิเคชั่น&lt;br&gt;สนับสนุนตู้ชาร์จรถไฟฟ้า" style="text;html=1;align=center;verticalAlign=middle;resizable=0;points=[];autosize=1;strokeColor=none;fillColor=none;" parent="2" vertex="1">
                    <mxGeometry y="30" width="170" height="90" as="geometry"/>
                </mxCell>
                <mxCell id="13" style="edgeStyle=none;sketch=0;html=1;exitX=1;exitY=0.25;exitDx=0;exitDy=0;entryX=0.318;entryY=-0.009;entryDx=0;entryDy=0;entryPerimeter=0;shadow=0;" parent="1" source="6" target="2" edge="1">
                    <mxGeometry relative="1" as="geometry">
                        <Array as="points">
                            <mxPoint x="405" y="140"/>
                        </Array>
                    </mxGeometry>
                </mxCell>
                <mxCell id="28" value="สมัครสมาชิก" style="edgeLabel;html=1;align=center;verticalAlign=middle;resizable=0;points=[];" parent="13" vertex="1" connectable="0">
                    <mxGeometry x="-0.4296" y="-2" relative="1" as="geometry">
                        <mxPoint x="28" y="-12" as="offset"/>
                    </mxGeometry>
                </mxCell>
                <mxCell id="14" style="edgeStyle=none;sketch=0;html=1;exitX=1;exitY=0.75;exitDx=0;exitDy=0;entryX=0.147;entryY=0;entryDx=0;entryDy=0;entryPerimeter=0;shadow=0;" parent="1" source="6" target="2" edge="1">
                    <mxGeometry relative="1" as="geometry">
                        <Array as="points">
                            <mxPoint x="375" y="160"/>
                        </Array>
                    </mxGeometry>
                </mxCell>
                <mxCell id="33" value="เติมเงินเช้าสู่บัญชี" style="edgeLabel;html=1;align=center;verticalAlign=middle;resizable=0;points=[];" parent="14" vertex="1" connectable="0">
                    <mxGeometry x="-0.128" y="-2" relative="1" as="geometry">
                        <mxPoint y="8" as="offset"/>
                    </mxGeometry>
                </mxCell>
                <mxCell id="6" value="ผู้ใช้งาน" style="whiteSpace=wrap;html=1;align=center;" parent="1" vertex="1">
                    <mxGeometry x="105" y="130" width="100" height="40" as="geometry"/>
                </mxCell>
                <mxCell id="17" style="edgeStyle=none;sketch=0;html=1;exitX=0;exitY=0.25;exitDx=0;exitDy=0;entryX=0.617;entryY=-0.004;entryDx=0;entryDy=0;entryPerimeter=0;shadow=0;" parent="1" source="7" target="2" edge="1">
                    <mxGeometry relative="1" as="geometry">
                        <Array as="points">
                            <mxPoint x="455" y="140"/>
                        </Array>
                    </mxGeometry>
                </mxCell>
                <mxCell id="35" value="จัดการสถานี้ชาร์จ" style="edgeLabel;html=1;align=center;verticalAlign=middle;resizable=0;points=[];" parent="17" vertex="1" connectable="0">
                    <mxGeometry x="-0.1446" relative="1" as="geometry">
                        <mxPoint x="16" y="-10" as="offset"/>
                    </mxGeometry>
                </mxCell>
                <mxCell id="20" style="edgeStyle=none;sketch=0;html=1;exitX=0.25;exitY=1;exitDx=0;exitDy=0;entryX=0.992;entryY=0.009;entryDx=0;entryDy=0;entryPerimeter=0;shadow=0;endArrow=none;endFill=0;startArrow=classic;startFill=1;" parent="1" source="7" target="4" edge="1">
                    <mxGeometry relative="1" as="geometry">
                        <Array as="points">
                            <mxPoint x="670" y="241"/>
                        </Array>
                    </mxGeometry>
                </mxCell>
                <mxCell id="40" value="เรียกดูข้อมูลการใช้งานตู้ชาร์จ" style="edgeLabel;html=1;align=center;verticalAlign=middle;resizable=0;points=[];" parent="20" vertex="1" connectable="0">
                    <mxGeometry x="0.4052" y="-2" relative="1" as="geometry">
                        <mxPoint x="5" y="-9" as="offset"/>
                    </mxGeometry>
                </mxCell>
                <mxCell id="7" value="ผู้ดูแลตู้สถานีชาร์จ" style="whiteSpace=wrap;html=1;align=center;" parent="1" vertex="1">
                    <mxGeometry x="645" y="130" width="100" height="40" as="geometry"/>
                </mxCell>
                <mxCell id="24" style="edgeStyle=none;sketch=0;html=1;exitX=0.25;exitY=0;exitDx=0;exitDy=0;entryX=0.239;entryY=1.018;entryDx=0;entryDy=0;entryPerimeter=0;shadow=0;startArrow=classic;startFill=1;endArrow=none;endFill=0;" parent="1" source="8" target="4" edge="1">
                    <mxGeometry relative="1" as="geometry"/>
                </mxCell>
                <mxCell id="37" value="จัดการสถานี้ชาร์จ" style="edgeLabel;html=1;align=center;verticalAlign=middle;resizable=0;points=[];" parent="24" vertex="1" connectable="0">
                    <mxGeometry x="0.4319" relative="1" as="geometry">
                        <mxPoint x="-45" as="offset"/>
                    </mxGeometry>
                </mxCell>
                <mxCell id="8" value="ผู้ดูแลระบบสูงสุด" style="whiteSpace=wrap;html=1;align=center;" parent="1" vertex="1">
                    <mxGeometry x="345" y="470" width="180" height="40" as="geometry"/>
                </mxCell>
                <mxCell id="25" style="edgeStyle=none;sketch=0;html=1;exitX=0.379;exitY=0.014;exitDx=0;exitDy=0;entryX=0.372;entryY=1.012;entryDx=0;entryDy=0;entryPerimeter=0;shadow=0;startArrow=classic;startFill=1;endArrow=none;endFill=0;exitPerimeter=0;" parent="1" source="8" target="4" edge="1">
                    <mxGeometry relative="1" as="geometry">
                        <mxPoint x="405" y="470" as="sourcePoint"/>
                        <mxPoint x="405.6300000000001" y="331.62" as="targetPoint"/>
                    </mxGeometry>
                </mxCell>
                <mxCell id="36" value="ข้อมูลผู้ใช้งานระบบ" style="edgeLabel;html=1;align=center;verticalAlign=middle;resizable=0;points=[];" parent="25" vertex="1" connectable="0">
                    <mxGeometry x="0.2853" y="-1" relative="1" as="geometry">
                        <mxPoint x="-34" y="39" as="offset"/>
                    </mxGeometry>
                </mxCell>
                <mxCell id="26" value="" style="endArrow=classic;html=1;shadow=0;sketch=0;exitX=0.602;exitY=-0.026;exitDx=0;exitDy=0;exitPerimeter=0;entryX=0.611;entryY=1.012;entryDx=0;entryDy=0;entryPerimeter=0;" parent="1" source="8" target="4" edge="1">
                    <mxGeometry width="50" height="50" relative="1" as="geometry">
                        <mxPoint x="455" y="410" as="sourcePoint"/>
                        <mxPoint x="505" y="360" as="targetPoint"/>
                    </mxGeometry>
                </mxCell>
                <mxCell id="32" value="เพิ่มผู้ดูแลให้กับสถานี" style="edgeLabel;html=1;align=center;verticalAlign=middle;resizable=0;points=[];" parent="26" vertex="1" connectable="0">
                    <mxGeometry x="-0.0464" y="-3" relative="1" as="geometry">
                        <mxPoint x="53" y="16" as="offset"/>
                    </mxGeometry>
                </mxCell>
                <mxCell id="27" value="" style="endArrow=classic;html=1;shadow=0;sketch=0;exitX=0.75;exitY=0;exitDx=0;exitDy=0;entryX=0.763;entryY=1.012;entryDx=0;entryDy=0;entryPerimeter=0;" parent="1" source="8" target="4" edge="1">
                    <mxGeometry width="50" height="50" relative="1" as="geometry">
                        <mxPoint x="463.3599999999999" y="478.96000000000004" as="sourcePoint"/>
                        <mxPoint x="463.8700000000001" y="341.08000000000004" as="targetPoint"/>
                    </mxGeometry>
                </mxCell>
                <mxCell id="31" value="เพิ่มสถานี้ชาร์จ" style="edgeLabel;html=1;align=center;verticalAlign=middle;resizable=0;points=[];" parent="27" vertex="1" connectable="0">
                    <mxGeometry x="0.1384" y="-3" relative="1" as="geometry">
                        <mxPoint x="37" y="-1" as="offset"/>
                    </mxGeometry>
                </mxCell>
                <mxCell id="38" value="" style="endArrow=classic;html=1;shadow=0;sketch=0;entryX=0.87;entryY=1.01;entryDx=0;entryDy=0;entryPerimeter=0;exitX=0.858;exitY=-0.054;exitDx=0;exitDy=0;exitPerimeter=0;" parent="1" source="8" target="4" edge="1">
                    <mxGeometry width="50" height="50" relative="1" as="geometry">
                        <mxPoint x="380" y="330" as="sourcePoint"/>
                        <mxPoint x="430" y="280" as="targetPoint"/>
                    </mxGeometry>
                </mxCell>
                <mxCell id="39" value="&lt;span style=&quot;font-size: 12px; background-color: rgb(42, 37, 47);&quot;&gt;เพิ่มผู้ดูแลตู้ชาร์จ&lt;/span&gt;" style="edgeLabel;html=1;align=center;verticalAlign=middle;resizable=0;points=[];" parent="38" vertex="1" connectable="0">
                    <mxGeometry x="0.5948" y="-3" relative="1" as="geometry">
                        <mxPoint x="39" y="1" as="offset"/>
                    </mxGeometry>
                </mxCell>
            </root>
        </mxGraphModel>
    </diagram>
    <diagram id="9bHBiGnGyeRt4_06esvb" name="Page-2">
        <mxGraphModel dx="936" dy="667" grid="1" gridSize="10" guides="1" tooltips="1" connect="1" arrows="1" fold="1" page="1" pageScale="1" pageWidth="850" pageHeight="1100" math="0" shadow="0">
            <root>
                <mxCell id="0"/>
                <mxCell id="1" parent="0"/>
                <mxCell id="xcl-h6xun4TJzL7JlLsV-19" style="edgeStyle=none;sketch=0;html=1;exitX=1;exitY=0.25;exitDx=0;exitDy=0;entryX=-0.012;entryY=0.281;entryDx=0;entryDy=0;shadow=0;startArrow=none;startFill=0;endArrow=classic;endFill=1;entryPerimeter=0;" parent="1" source="SCMVWV-bNBdLQlNtoqKn-1" target="xcl-h6xun4TJzL7JlLsV-1" edge="1">
                    <mxGeometry relative="1" as="geometry"/>
                </mxCell>
                <mxCell id="SCMVWV-bNBdLQlNtoqKn-1" value="1.0" style="swimlane;childLayout=stackLayout;horizontal=1;startSize=30;horizontalStack=0;rounded=1;fontSize=14;fontStyle=0;strokeWidth=2;resizeParent=0;resizeLast=1;shadow=0;dashed=0;align=center;" parent="1" vertex="1">
                    <mxGeometry x="345" y="130" width="160" height="120" as="geometry"/>
                </mxCell>
                <mxCell id="SCMVWV-bNBdLQlNtoqKn-3" value="จัดการสมาชิก" style="text;html=1;align=center;verticalAlign=middle;resizable=0;points=[];autosize=1;strokeColor=none;fillColor=none;" parent="SCMVWV-bNBdLQlNtoqKn-1" vertex="1">
                    <mxGeometry y="30" width="160" height="90" as="geometry"/>
                </mxCell>
                <mxCell id="SCMVWV-bNBdLQlNtoqKn-5" value="3.0" style="swimlane;childLayout=stackLayout;horizontal=1;startSize=30;horizontalStack=0;rounded=1;fontSize=14;fontStyle=0;strokeWidth=2;resizeParent=0;resizeLast=1;shadow=0;dashed=0;align=center;" parent="1" vertex="1">
                    <mxGeometry x="345" y="570" width="160" height="120" as="geometry"/>
                </mxCell>
                <mxCell id="SCMVWV-bNBdLQlNtoqKn-6" value="จัดการตู้ชาร์จ" style="text;html=1;align=center;verticalAlign=middle;resizable=0;points=[];autosize=1;strokeColor=none;fillColor=none;" parent="SCMVWV-bNBdLQlNtoqKn-5" vertex="1">
                    <mxGeometry y="30" width="160" height="90" as="geometry"/>
                </mxCell>
                <mxCell id="SCMVWV-bNBdLQlNtoqKn-7" value="2.0" style="swimlane;childLayout=stackLayout;horizontal=1;startSize=30;horizontalStack=0;rounded=1;fontSize=14;fontStyle=0;strokeWidth=2;resizeParent=0;resizeLast=1;shadow=0;dashed=0;align=center;" parent="1" vertex="1">
                    <mxGeometry x="345" y="340" width="160" height="120" as="geometry"/>
                </mxCell>
                <mxCell id="SCMVWV-bNBdLQlNtoqKn-8" value="จัดการการชาร์จ" style="text;html=1;align=center;verticalAlign=middle;resizable=0;points=[];autosize=1;strokeColor=none;fillColor=none;" parent="SCMVWV-bNBdLQlNtoqKn-7" vertex="1">
                    <mxGeometry y="30" width="160" height="90" as="geometry"/>
                </mxCell>
                <mxCell id="oQi3KjAv8rqVyzDR-Fmb-1" value="จัดการการชาร์จ" style="text;html=1;align=center;verticalAlign=middle;resizable=0;points=[];autosize=1;strokeColor=none;fillColor=none;" vertex="1" parent="SCMVWV-bNBdLQlNtoqKn-7">
                    <mxGeometry y="120" width="160" as="geometry"/>
                </mxCell>
                <mxCell id="xcl-h6xun4TJzL7JlLsV-14" style="edgeStyle=none;sketch=0;html=1;exitX=1;exitY=0.25;exitDx=0;exitDy=0;entryX=-0.013;entryY=0.225;entryDx=0;entryDy=0;entryPerimeter=0;shadow=0;startArrow=none;startFill=0;endArrow=classic;endFill=1;" parent="1" source="SCMVWV-bNBdLQlNtoqKn-11" target="SCMVWV-bNBdLQlNtoqKn-3" edge="1">
                    <mxGeometry relative="1" as="geometry"/>
                </mxCell>
                <mxCell id="xcl-h6xun4TJzL7JlLsV-16" value="ข้อมูลผู้ใช้งาน" style="edgeLabel;html=1;align=center;verticalAlign=middle;resizable=0;points=[];" parent="xcl-h6xun4TJzL7JlLsV-14" vertex="1" connectable="0">
                    <mxGeometry x="-0.5035" y="2" relative="1" as="geometry">
                        <mxPoint x="45" y="-8" as="offset"/>
                    </mxGeometry>
                </mxCell>
                <mxCell id="xcl-h6xun4TJzL7JlLsV-15" style="edgeStyle=none;sketch=0;html=1;exitX=1;exitY=0.75;exitDx=0;exitDy=0;entryX=-0.018;entryY=0.438;entryDx=0;entryDy=0;entryPerimeter=0;shadow=0;startArrow=none;startFill=0;endArrow=classic;endFill=1;" parent="1" source="SCMVWV-bNBdLQlNtoqKn-11" target="SCMVWV-bNBdLQlNtoqKn-3" edge="1">
                    <mxGeometry relative="1" as="geometry"/>
                </mxCell>
                <mxCell id="xcl-h6xun4TJzL7JlLsV-17" value="เติมงินเข้าบัญชี" style="edgeLabel;html=1;align=center;verticalAlign=middle;resizable=0;points=[];" parent="xcl-h6xun4TJzL7JlLsV-15" vertex="1" connectable="0">
                    <mxGeometry x="-0.1261" y="-2" relative="1" as="geometry">
                        <mxPoint x="11" y="8" as="offset"/>
                    </mxGeometry>
                </mxCell>
                <mxCell id="SCMVWV-bNBdLQlNtoqKn-11" value="ผู้ใช้งาน" style="whiteSpace=wrap;html=1;align=center;" parent="1" vertex="1">
                    <mxGeometry x="60" y="170" width="100" height="40" as="geometry"/>
                </mxCell>
                <mxCell id="wXvpZX5HvS5FQQoUo6wE-1" value="ผู้ดูแลตู้สถานีชาร์จ" style="whiteSpace=wrap;html=1;align=center;" parent="1" vertex="1">
                    <mxGeometry x="60" y="290" width="100" height="40" as="geometry"/>
                </mxCell>
                <mxCell id="7aqle-6CVo78H4lxUMSD-1" value="ผู้ดูแลระบบสูงสุด" style="whiteSpace=wrap;html=1;align=center;" parent="1" vertex="1">
                    <mxGeometry x="60" y="410" width="100" height="40" as="geometry"/>
                </mxCell>
                <mxCell id="xcl-h6xun4TJzL7JlLsV-5" value="" style="group" parent="1" vertex="1" connectable="0">
                    <mxGeometry x="690" y="147" width="100" height="46" as="geometry"/>
                </mxCell>
                <mxCell id="xcl-h6xun4TJzL7JlLsV-1" value="D1" style="html=1;dashed=0;whitespace=wrap;shape=mxgraph.dfd.dataStoreID;align=left;spacingLeft=3;points=[[0,0],[0.5,0],[1,0],[0,0.5],[1,0.5],[0,1],[0.5,1],[1,1]];" parent="xcl-h6xun4TJzL7JlLsV-5" vertex="1">
                    <mxGeometry width="100" height="46" as="geometry"/>
                </mxCell>
                <mxCell id="xcl-h6xun4TJzL7JlLsV-4" value="ผู้ใช้งาน" style="text;html=1;strokeColor=none;fillColor=none;align=center;verticalAlign=middle;whiteSpace=wrap;rounded=0;" parent="xcl-h6xun4TJzL7JlLsV-5" vertex="1">
                    <mxGeometry x="30" width="70" height="46" as="geometry"/>
                </mxCell>
                <mxCell id="xcl-h6xun4TJzL7JlLsV-7" value="" style="group" parent="1" vertex="1" connectable="0">
                    <mxGeometry x="600" y="460" width="100" height="30" as="geometry"/>
                </mxCell>
                <mxCell id="xcl-h6xun4TJzL7JlLsV-2" value="D3" style="html=1;dashed=0;whitespace=wrap;shape=mxgraph.dfd.dataStoreID;align=left;spacingLeft=3;points=[[0,0],[0.5,0],[1,0],[0,0.5],[1,0.5],[0,1],[0.5,1],[1,1]];" parent="xcl-h6xun4TJzL7JlLsV-7" vertex="1">
                    <mxGeometry width="100" height="30" as="geometry"/>
                </mxCell>
                <mxCell id="xcl-h6xun4TJzL7JlLsV-6" value="สถานี" style="text;html=1;strokeColor=none;fillColor=none;align=center;verticalAlign=middle;whiteSpace=wrap;rounded=0;" parent="xcl-h6xun4TJzL7JlLsV-7" vertex="1">
                    <mxGeometry x="30" width="70" height="30" as="geometry"/>
                </mxCell>
                <mxCell id="xcl-h6xun4TJzL7JlLsV-9" value="" style="group" parent="1" vertex="1" connectable="0">
                    <mxGeometry x="610" y="250" width="140" height="30" as="geometry"/>
                </mxCell>
                <mxCell id="xcl-h6xun4TJzL7JlLsV-3" value="D2" style="html=1;dashed=0;whitespace=wrap;shape=mxgraph.dfd.dataStoreID;align=left;spacingLeft=3;points=[[0,0],[0.5,0],[1,0],[0,0.5],[1,0.5],[0,1],[0.5,1],[1,1]];" parent="xcl-h6xun4TJzL7JlLsV-9" vertex="1">
                    <mxGeometry width="140" height="30" as="geometry"/>
                </mxCell>
                <mxCell id="xcl-h6xun4TJzL7JlLsV-8" value="ประวัติการเติมเงิน" style="text;html=1;strokeColor=none;fillColor=none;align=center;verticalAlign=middle;whiteSpace=wrap;rounded=0;" parent="xcl-h6xun4TJzL7JlLsV-9" vertex="1">
                    <mxGeometry x="42" width="98" height="30" as="geometry"/>
                </mxCell>
                <mxCell id="xcl-h6xun4TJzL7JlLsV-10" value="" style="group" parent="1" vertex="1" connectable="0">
                    <mxGeometry x="590" y="580" width="160" height="30" as="geometry"/>
                </mxCell>
                <mxCell id="xcl-h6xun4TJzL7JlLsV-11" value="D4" style="html=1;dashed=0;whitespace=wrap;shape=mxgraph.dfd.dataStoreID;align=left;spacingLeft=3;points=[[0,0],[0.5,0],[1,0],[0,0.5],[1,0.5],[0,1],[0.5,1],[1,1]];" parent="xcl-h6xun4TJzL7JlLsV-10" vertex="1">
                    <mxGeometry width="160" height="30" as="geometry"/>
                </mxCell>
                <mxCell id="xcl-h6xun4TJzL7JlLsV-12" value="ประวัติการใช้งานสถานี" style="text;html=1;strokeColor=none;fillColor=none;align=center;verticalAlign=middle;whiteSpace=wrap;rounded=0;" parent="xcl-h6xun4TJzL7JlLsV-10" vertex="1">
                    <mxGeometry x="30" width="130" height="30" as="geometry"/>
                </mxCell>
            </root>
        </mxGraphModel>
    </diagram>
</mxfile>